<svg height="480pt" viewBox="0 0 480 480" width="480pt" xmlns="http://www.w3.org/2000/svg"><path d="m440 8h-400c-17.671875 0-32 14.328125-32 32v272h464v-272c0-17.671875-14.328125-32-32-32zm0 272h-400v-240h400zm0 0" fill="#57a4ff"/><path d="m40 280h400v-240h-400zm112-136h34.320312c1.097657-3.6875 2.574219-7.253906 4.398438-10.640625l-24.238281-24.238281 22.640625-22.640625 24.160156 24.238281h.078125c3.386719-1.824219 6.953125-3.300781 10.640625-4.398438v-34.320312h32v34.320312c3.6875 1.097657 7.253906 2.574219 10.640625 4.398438h.078125l24.160156-24.238281 22.640625 22.640625-24.238281 24.238281c1.824219 3.386719 3.300781 6.953125 4.398438 10.640625h34.320312v32h-34.320312c-1.097657 3.6875-2.574219 7.253906-4.398438 10.640625v.078125l24.238281 24.160156-22.640625 22.640625-24.238281-24.238281c-3.386719 1.824219-6.953125 3.300781-10.640625 4.398438v34.320312h-32v-34.320312c-3.6875-1.097657-7.253906-2.574219-10.640625-4.398438l-24.238281 24.238281-22.640625-22.640625 24.238281-24.160156v-.078125c-1.824219-3.386719-3.300781-6.953125-4.398438-10.640625h-34.320312zm0 0" fill="#f1f2f2"/><path d="m8 360c0 8.835938 7.164062 16 16 16h432c8.835938 0 16-7.164062 16-16v-48h-464zm0 0" fill="#898890"/><path d="m200 376h80v64h-80zm0 0" fill="#57565c"/><path d="m160 440c-8.835938 0-16 7.164062-16 16s7.164062 16 16 16h160c8.835938 0 16-7.164062 16-16s-7.164062-16-16-16zm0 0" fill="#57565c"/><path d="m190.71875 186.640625v.078125l-24.238281 24.160156 22.640625 22.640625 24.238281-24.238281c3.386719 1.824219 6.953125 3.300781 10.640625 4.398438v34.320312h32v-34.320312c3.6875-1.097657 7.253906-2.574219 10.640625-4.398438l24.238281 24.238281 22.640625-22.640625-24.238281-24.160156v-.078125c1.824219-3.386719 3.300781-6.953125 4.398438-10.640625h34.320312v-32h-34.320312c-1.097657-3.6875-2.574219-7.253906-4.398438-10.640625l24.238281-24.238281-22.640625-22.640625-24.160156 24.238281h-.078125c-3.386719-1.824219-6.953125-3.300781-10.640625-4.398438v-34.320312h-32v34.320312c-3.6875 1.097657-7.253906 2.574219-10.640625 4.398438h-.078125l-24.160156-24.238281-22.640625 22.640625 24.238281 24.238281c-1.824219 3.386719-3.300781 6.953125-4.398438 10.640625h-34.320312v32h34.320312c1.097657 3.6875 2.574219 7.253906 4.398438 10.640625zm49.28125-50.640625c13.253906 0 24 10.746094 24 24s-10.746094 24-24 24-24-10.746094-24-24 10.746094-24 24-24zm0 0" fill="#ff6243"/><path d="m264 160c0 13.253906-10.746094 24-24 24s-24-10.746094-24-24 10.746094-24 24-24 24 10.746094 24 24zm0 0" fill="#f1f2f2"/><g fill="#231f20"><path d="m440 0h-400c-22.082031.0273438-39.9726562 17.917969-40 40v320c0 13.253906 10.746094 24 24 24h168v48h-32c-13.253906 0-24 10.746094-24 24s10.746094 24 24 24h160c13.253906 0 24-10.746094 24-24s-10.746094-24-24-24h-32v-48h168c13.253906 0 24-10.746094 24-24v-320c-.027344-22.082031-17.917969-39.9726562-40-40zm-424 40c0-13.253906 10.746094-24 24-24h400c13.253906 0 24 10.746094 24 24v264h-448zm312 416c0 4.417969-3.582031 8-8 8h-160c-4.417969 0-8-3.582031-8-8s3.582031-8 8-8h160c4.417969 0 8 3.582031 8 8zm-56-24h-64v-48h64zm192-72c0 4.417969-3.582031 8-8 8h-432c-4.417969 0-8-3.582031-8-8v-40h448zm0 0"/><path d="m440 32h-400c-4.417969 0-8 3.582031-8 8v240c0 4.417969 3.582031 8 8 8h400c4.417969 0 8-3.582031 8-8v-240c0-4.417969-3.582031-8-8-8zm-8 240h-384v-224h384zm0 0"/><path d="m152 184h28.65625l.421875 1.03125-20.277344 20.175781c-1.503906 1.5-2.351562 3.539063-2.351562 5.664063s.847656 4.164062 2.351562 5.664062l22.640625 22.640625c3.121094 3.125 8.1875 3.125 11.3125 0l20.238282-20.238281.984374.40625v28.65625c0 4.417969 3.582032 8 8 8h32c4.417969 0 8-3.582031 8-8v-28.65625l.984376-.40625 20.238281 20.238281c3.125 3.125 8.1875 3.125 11.3125 0l22.640625-22.640625c1.503906-1.5 2.351562-3.539062 2.351562-5.664062s-.847656-4.164063-2.351562-5.664063l-20.25-20.175781.441406-1.03125h28.65625c4.417969 0 8-3.582031 8-8v-32c0-4.417969-3.582031-8-8-8h-28.65625c-.136719-.335938-.265625-.664062-.40625-.984375l20.238281-20.238281c3.125-3.125 3.125-8.1875 0-11.3125l-22.640625-22.640625c-1.5-1.5-3.535156-2.34375-5.65625-2.34375-2.121094.003906-4.15625.847656-5.65625 2.351562l-20.183594 20.246094-1.039062-.421875v-28.65625c0-4.417969-3.582031-8-8-8h-32c-4.417969 0-8 3.582031-8 8v28.65625l-1.03125.421875-20.183594-20.277344c-1.5-1.503906-3.535156-2.351562-5.65625-2.351562s-4.15625.84375-5.65625 2.34375l-22.640625 22.640625c-3.125 3.121094-3.125 8.1875 0 11.308594l20.238281 20.242187c-.140624.320313-.269531.648437-.40625.984375h-28.664062c-4.417969 0-8 3.582031-8 8v32c-.007812 2.125.832031 4.167969 2.332031 5.675781 1.5 1.507813 3.539063 2.355469 5.667969 2.355469zm8-32h26.320312c3.523438 0 6.628907-2.300781 7.65625-5.671875.9375-3.167969 2.199219-6.230469 3.765626-9.136719 1.699218-3.117187 1.144531-6.976562-1.367188-9.488281l-18.582031-18.582031 11.320312-11.3125 18.503907 18.558594c2.570312 2.476562 6.4375 3.027343 9.597656 1.367187 2.90625-1.558594 5.964844-2.820313 9.128906-3.757813 3.363281-1.03125 5.660156-4.136718 5.65625-7.65625v-26.320312h16v26.320312c0 3.523438 2.300781 6.628907 5.671875 7.65625 3.164063.9375 6.222656 2.199219 9.128906 3.757813 3.160157 1.660156 7.027344 1.109375 9.597657-1.367187l18.503906-18.558594 11.320312 11.3125-18.582031 18.582031c-2.511719 2.511719-3.066406 6.371094-1.367187 9.488281 1.566406 2.90625 2.828124 5.96875 3.765624 9.136719 1.023438 3.363281 4.125 5.664063 7.640626 5.671875h26.320312v16h-26.320312c-3.523438 0-6.628907 2.300781-7.65625 5.671875-.9375 3.167969-2.199219 6.230469-3.765626 9.136719-.644531 1.203125-.976562 2.546875-.976562 3.910156 0 2.125.84375 4.164062 2.351562 5.664062l18.566407 18.503907-11.320313 11.320312-18.582031-18.582031c-2.511719-2.511719-6.378906-3.066406-9.496094-1.359375-2.90625 1.558594-5.964843 2.820313-9.128906 3.757813-3.371094 1.027343-5.671875 4.132812-5.671875 7.65625v26.320312h-16v-26.320312c0-3.523438-2.300781-6.628907-5.671875-7.65625-3.164063-.9375-6.222656-2.199219-9.128906-3.757813-3.117188-1.707031-6.984375-1.152344-9.496094 1.359375l-18.582031 18.582031-11.320313-11.320312 18.566407-18.503907c1.507812-1.53125 2.351562-3.59375 2.351562-5.742187 0-1.339844-.332031-2.65625-.976562-3.832031-1.566407-2.90625-2.828126-5.96875-3.765626-9.136719-1.027343-3.371094-4.132812-5.671875-7.65625-5.671875h-26.320312zm0 0"/><path d="m240 192c17.671875 0 32-14.328125 32-32s-14.328125-32-32-32-32 14.328125-32 32 14.328125 32 32 32zm0-48c8.835938 0 16 7.164062 16 16s-7.164062 16-16 16-16-7.164062-16-16 7.164062-16 16-16zm0 0"/></g></svg>